# xmcd CD database file
#
# Track frame offsets:
#	150
#	12850
#	24277
#	36802
#	49030
#	60189
#	71629
#	81437
#	91230
#	105625
#	118090
#	133176
#	146005
#	158730
#	170898
#	185130
#	196177
#	208952
#	221423
#	231514
#
# Disc length: 3231 seconds
#
# Revision: 1
# Processed by: cddbd v1.5.1PL0 Copyright (c) Steve Scherf et al.
# Submitted via: CDex 1.51
#
DISCID=230c9d14
DTITLE=Dinah Washington - The best of Dinah Washington
DYEAR=2002
DGENRE=Jazz
TTITLE0=Mad about the boy
TTITLE1=What a difference a day makes
TTITLE2=Baby
TTITLE3=Unforgettable
TTITLE4=A rockin' good way
TTITLE5=This bitter earth
TTITLE6=Love walked in
TTITLE7=September in the rain
TTITLE8=I don't hurt anymore
TTITLE9=Teach me tonight
TTITLE10=Cold, cold heart
TTITLE11=Baby get lost
TTITLE12=Am I asking too much?
TTITLE13=It's too soon to know
TTITLE14=Long john blues
TTITLE15=I only know
TTITLE16=I wanna be loved
TTITLE17=I'll never be free
TTITLE18=Wheel of fortune
TTITLE19=T.V. is the thing (this year)
EXTD=YEAR: 2002
EXTT0=
EXTT1=
EXTT2=
EXTT3=
EXTT4=
EXTT5=
EXTT6=
EXTT7=
EXTT8=
EXTT9=
EXTT10=
EXTT11=
EXTT12=
EXTT13=
EXTT14=
EXTT15=
EXTT16=
EXTT17=
EXTT18=
EXTT19=
PLAYORDER=
